<?xml version="1.0" encoding="utf-8"?>
<!-- Generator: Adobe Illustrator 17.0.0, SVG Export Plug-In . SVG Version: 6.00 Build 0)  -->
<!DOCTYPE svg PUBLIC "-//W3C//DTD SVG 1.1//EN" "http://www.w3.org/Graphics/SVG/1.1/DTD/svg11.dtd">
<svg version="1.1" id="图层_1" xmlns="http://www.w3.org/2000/svg" xmlns:xlink="http://www.w3.org/1999/xlink" x="0px" y="0px"
	 width="150px" height="150px" viewBox="0 0 150 150" enable-background="new 0 0 150 150" xml:space="preserve">
<g>
	<path fill="none" stroke="#EF8049" stroke-width="5" stroke-linecap="round" stroke-linejoin="round" stroke-miterlimit="10" d="
		M38.841,76.701"/>
	<path fill="none" stroke="#EF8049" stroke-width="5" stroke-linecap="round" stroke-linejoin="round" stroke-miterlimit="10" d="
		M112.473,75.068"/>
	<path fill="none" stroke="#EF8049" stroke-width="5" stroke-linecap="round" stroke-linejoin="round" stroke-miterlimit="10" d="
		M38.841,76.701v25.184c0,5.31,17.311,10.849,41.449,10.355c30.643-0.627,32.183-8.497,32.183-11.417V75.068"/>
	<path fill="none" stroke="#EF8049" stroke-width="5" stroke-linecap="round" stroke-linejoin="round" stroke-miterlimit="10" d="
		M26.562,71.237c0.487,1.693,0.625,2.039-0.179,3.832c-2.146,4.779-7.509,5.045-5.632,10.886"/>
	<path fill="none" stroke="#EF8049" stroke-width="5" stroke-linecap="round" stroke-linejoin="round" stroke-miterlimit="10" d="
		M70.499,38.9L22.36,59.403c0,0-9.119,3.717-1.073,9.028l50.152,21.035c0,0,4.585,2.709,9.949-0.743l49.946-20.639
		c0,0,7.422-4.433-1.16-8.947L80.658,38.504C80.658,38.504,76.733,36.008,70.499,38.9z"/>
	<path fill="none" stroke="#EF8049" stroke-width="5" stroke-linecap="round" stroke-linejoin="round" stroke-miterlimit="10" d="
		M25.313,96.294c-0.181,1.978-2.48,3.389-5.135,3.151l0,0c-2.655-0.238-4.661-2.035-4.48-4.013l0.491-5.373
		c0.181-1.978,2.48-3.389,5.135-3.151l0,0c2.655,0.238,4.661,2.035,4.48,4.013L25.313,96.294z"/>
</g>
</svg>
